<svg width="177" height="29" viewBox="0 0 177 29" fill="none" xmlns="http://www.w3.org/2000/svg">
<path d="M0.872 25.456H4.616V3.52H0.872V0.975999H15.08C17.96 0.975999 20.2 1.584 21.8 2.8C23.432 3.984 24.248 5.728 24.248 8.032C24.248 12.128 21.928 14.528 17.288 15.232L23.48 25.456H27.464V28H20.792L13.544 15.616H10.232V12.976H14.456C16.6 12.976 18.12 12.512 19.016 11.584C19.912 10.624 20.36 9.456 20.36 8.08C20.36 6.736 19.912 5.648 19.016 4.816C18.152 3.952 16.856 3.52 15.128 3.52H8.552V25.456H12.296V28H0.872V25.456ZM30.5908 25.456H34.3348V3.52H30.5908V0.975999H54.1108V8.992H51.0868V3.52H38.2708V12.688H46.6708V9.52H48.6388V18.544H46.6708V15.328H38.2708V25.456H51.3268V19.84H54.3508V28H30.5908V25.456ZM60.8323 3.52H57.4243V0.975999H68.4163V3.52H64.8643L72.4963 23.728L80.0323 3.52H76.5763V0.975999H86.8483V3.52H83.5363L73.9363 28H70.5283L60.8323 3.52ZM90.0875 25.456H93.8315V3.52H90.0875V0.975999H101.56V3.52H97.7675V25.456H101.56V28H90.0875V25.456ZM117.633 12.448C120.961 13.024 123.345 13.904 124.785 15.088C126.257 16.24 126.993 18.064 126.993 20.56C126.993 22 126.657 23.328 125.985 24.544C125.313 25.728 124.321 26.688 123.009 27.424C121.697 28.128 120.145 28.48 118.353 28.48C116.689 28.48 115.169 28.144 113.793 27.472C112.449 26.8 111.345 25.872 110.481 24.688V28H107.361V18.88H110.241C110.433 20.896 111.233 22.544 112.641 23.824C114.081 25.072 115.937 25.696 118.209 25.696C119.873 25.696 121.169 25.296 122.097 24.496C123.025 23.696 123.489 22.576 123.489 21.136C123.489 19.984 123.281 19.088 122.865 18.448C122.449 17.776 121.777 17.264 120.849 16.912C119.953 16.528 118.657 16.192 116.961 15.904L115.809 15.712C113.089 15.264 110.977 14.4 109.473 13.12C107.969 11.808 107.217 10.048 107.217 7.84C107.217 5.504 107.985 3.696 109.521 2.416C111.057 1.104 113.121 0.448 115.713 0.448C117.185 0.448 118.513 0.704 119.697 1.216C120.913 1.696 121.889 2.4 122.625 3.328V0.975999H125.697V8.608H122.865C122.257 5.024 119.937 3.232 115.905 3.232C114.273 3.232 112.993 3.616 112.065 4.384C111.169 5.152 110.721 6.176 110.721 7.456C110.721 8.8 111.201 9.856 112.161 10.624C113.121 11.36 114.577 11.904 116.529 12.256L117.633 12.448ZM131.431 25.456H135.175V3.52H131.431V0.975999H142.903V3.52H139.111V25.456H142.903V28H131.431V25.456ZM162.289 28.528C159.409 28.528 156.849 27.904 154.609 26.656C152.401 25.376 150.689 23.68 149.473 21.568C148.257 19.424 147.649 17.088 147.649 14.56C147.649 12.032 148.257 9.696 149.473 7.552C150.689 5.376 152.401 3.664 154.609 2.416C156.849 1.136 159.409 0.495999 162.289 0.495999C165.169 0.495999 167.713 1.136 169.921 2.416C172.161 3.664 173.889 5.376 175.105 7.552C176.321 9.696 176.929 12.032 176.929 14.56C176.929 17.088 176.321 19.424 175.105 21.568C173.889 23.68 172.161 25.376 169.921 26.656C167.713 27.904 165.169 28.528 162.289 28.528ZM162.289 25.648C164.433 25.648 166.289 25.152 167.857 24.16C169.425 23.168 170.625 21.84 171.457 20.176C172.321 18.48 172.753 16.608 172.753 14.56C172.753 12.48 172.321 10.592 171.457 8.896C170.625 7.2 169.425 5.856 167.857 4.864C166.289 3.84 164.433 3.328 162.289 3.328C160.145 3.328 158.289 3.84 156.721 4.864C155.153 5.856 153.953 7.216 153.121 8.944C152.289 10.64 151.873 12.528 151.873 14.608C151.873 16.688 152.289 18.56 153.121 20.224C153.953 21.888 155.153 23.216 156.721 24.208C158.289 25.168 160.145 25.648 162.289 25.648Z" fill="#92AABA"/>
</svg>
